<svg id="svg" xmlns="http://www.w3.org/2000/svg" xmlns:xlink="http://www.w3.org/1999/xlink" width="400" height="400" viewBox="0, 0, 400,400"><g id="svgg"><path id="path0" d="M118.400 44.368 C 106.457 47.049,89.227 57.256,79.886 67.185 C 73.062 74.440,69.677 81.050,63.187 99.800 C 52.103 131.824,35.459 160.588,16.406 180.649 C 4.153 193.550,-0.382 204.390,0.113 219.600 C 0.508 231.738,3.574 239.260,11.619 247.820 C 24.764 261.807,37.923 280.939,44.967 296.301 C 52.454 312.630,57.828 317.058,77.108 322.784 C 94.022 327.807,126.044 341.572,148.600 353.516 C 165.044 362.223,179.279 352.655,182.578 330.677 C 183.308 325.817,183.014 326.167,186.620 325.862 C 191.497 325.450,197.864 324.441,202.501 323.346 L 206.801 322.330 207.962 323.306 C 218.228 331.945,243.390 335.382,266.891 331.355 L 272.782 330.346 274.091 331.344 C 282.955 338.103,302.611 339.873,325.800 336.000 C 351.004 331.791,360.463 325.791,366.601 310.118 C 371.857 296.699,372.323 295.709,379.725 282.200 C 398.583 247.785,402.961 228.451,398.248 200.400 C 397.453 195.670,396.256 186.220,395.587 179.400 C 391.829 141.050,389.762 129.051,385.154 118.844 C 377.313 101.479,352.508 87.701,337.536 92.395 C 336.141 92.832,334.892 93.192,334.759 93.195 C 334.627 93.198,331.747 90.451,328.359 87.090 C 313.973 72.821,302.017 67.493,285.800 68.126 C 278.805 68.399,275.835 69.070,267.551 72.248 C 264.401 73.456,261.280 71.952,252.371 64.933 C 225.176 43.506,202.736 41.987,175.447 59.726 L 171.093 62.556 169.447 61.614 C 168.541 61.096,164.821 58.741,161.180 56.381 C 143.685 45.042,131.121 41.514,118.400 44.368 M132.065 59.764 C 138.244 60.950,142.468 63.021,154.334 70.682 C 169.445 80.438,172.445 80.719,183.226 73.382 C 204.369 58.995,220.439 59.672,241.412 75.833 C 253.799 85.378,258.448 87.689,265.196 87.657 C 268.674 87.640,269.628 87.409,276.800 84.845 C 286.305 81.448,298.351 82.682,307.118 87.951 C 311.137 90.366,311.697 90.831,318.400 97.314 C 328.764 107.337,332.462 108.834,340.235 106.149 C 349.098 103.089,365.687 111.278,372.138 121.898 C 376.804 129.579,379.826 143.632,383.599 175.200 C 385.231 188.858,386.213 195.461,387.642 202.399 C 392.868 227.771,390.036 243.232,374.121 276.200 C 366.590 291.800,364.970 295.573,362.197 303.968 C 358.524 315.088,356.028 319.504,352.918 320.380 C 345.293 322.528,326.889 321.743,320.914 319.015 C 317.763 317.576,312.400 311.888,312.400 309.985 C 312.400 309.154,316.039 311.131,318.267 313.173 C 326.433 320.656,341.145 323.092,350.400 318.493 L 352.600 317.400 349.600 317.309 C 341.358 317.058,333.443 315.771,327.400 313.698 L 324.200 312.600 329.400 312.399 C 332.260 312.289,334.330 312.088,334.000 311.954 C 333.670 311.819,331.420 311.137,329.000 310.438 C 322.348 308.517,312.400 303.222,312.400 301.602 C 312.400 301.421,313.202 298.151,314.183 294.336 C 316.407 285.685,318.385 276.088,320.397 264.200 C 322.939 249.172,324.024 239.620,325.599 218.400 C 326.457 206.846,326.833 204.986,329.164 200.765 C 332.911 193.980,336.368 186.633,336.642 184.871 L 336.911 183.143 335.356 183.792 C 332.311 185.064,330.468 186.412,327.652 189.427 L 324.800 192.481 324.800 191.089 C 324.800 189.663,323.358 180.825,323.080 180.547 C 322.995 180.462,322.809 183.355,322.666 186.976 C 321.861 207.403,314.595 249.626,305.350 287.600 L 303.549 295.000 300.537 297.907 C 290.992 307.118,270.285 308.408,251.100 300.985 C 249.066 300.198,250.829 301.417,253.500 302.645 C 263.247 307.125,268.974 309.132,276.200 310.601 L 280.600 311.495 278.600 311.771 C 276.859 312.011,275.429 311.709,267.555 309.441 C 252.420 305.080,249.706 303.823,244.868 298.936 C 242.716 296.761,241.632 295.894,241.807 296.485 C 244.051 304.083,251.368 309.442,263.295 312.222 C 267.407 313.181,267.020 313.310,261.554 312.802 C 252.923 312.000,244.338 309.362,240.027 306.188 C 236.027 303.244,235.616 301.453,237.617 295.699 C 243.083 279.983,246.421 249.161,247.028 208.800 C 247.296 190.957,247.149 191.912,255.013 156.900 C 255.276 155.728,254.928 155.765,252.763 157.137 C 249.751 159.048,246.495 163.407,244.576 168.099 C 243.591 170.509,243.657 170.540,242.000 166.886 C 240.735 164.097,234.944 155.723,234.552 156.115 C 234.463 156.204,235.283 158.149,236.373 160.438 C 240.847 169.828,241.692 178.832,239.823 197.200 C 239.498 200.390,238.140 214.880,236.804 229.400 C 233.009 270.673,232.091 278.725,230.812 281.970 C 227.999 289.107,227.869 289.203,221.050 289.196 C 206.487 289.181,188.366 285.301,178.900 280.170 C 175.403 278.275,175.788 278.968,179.805 281.800 C 188.042 287.607,199.101 292.590,210.400 295.585 L 214.600 296.699 212.634 297.005 C 208.528 297.644,200.136 296.485,189.254 293.776 C 177.647 290.887,172.370 288.335,166.736 282.886 C 157.409 273.865,156.210 265.859,160.198 239.200 C 162.552 223.467,163.115 215.206,163.591 189.460 C 163.919 171.696,164.335 166.593,165.586 165.000 C 169.249 160.337,177.569 141.600,175.977 141.600 C 173.139 141.600,165.432 148.162,162.634 152.961 L 161.067 155.647 160.160 152.507 C 158.911 148.178,157.878 145.647,155.504 141.100 C 153.498 137.255,152.244 135.777,153.470 138.700 C 155.352 143.190,156.928 150.447,157.576 157.600 C 158.669 169.669,155.071 209.733,150.410 237.400 C 149.335 243.780,148.330 250.309,148.175 251.908 C 147.590 257.979,140.180 261.012,126.000 260.985 C 105.546 260.945,91.590 253.624,89.577 241.878 C 89.010 238.572,88.807 238.759,92.200 239.457 C 99.637 240.988,111.109 240.585,118.900 238.520 C 123.994 237.170,123.826 236.975,117.701 237.126 C 108.839 237.345,99.472 235.086,91.117 230.717 C 86.583 228.346,86.731 228.559,85.625 222.800 C 82.652 207.311,82.611 206.545,82.605 166.200 C 82.599 125.083,82.834 128.454,79.152 116.575 C 76.325 107.456,76.311 108.494,79.391 99.800 C 85.502 82.557,90.999 75.592,105.086 67.243 C 117.551 59.857,123.688 58.155,132.065 59.764 M76.314 119.500 C 77.445 128.780,77.439 129.807,76.186 142.626 C 70.935 196.323,71.141 206.675,78.036 235.400 C 80.850 247.125,81.629 249.659,83.168 252.085 C 83.796 253.075,84.512 254.831,84.760 255.989 C 85.458 259.241,87.059 263.740,88.627 266.854 C 90.326 270.228,90.320 270.239,87.343 269.340 C 76.594 266.095,61.727 272.180,53.953 283.006 C 52.313 285.289,52.492 285.369,50.504 281.476 C 44.042 268.823,31.185 250.344,21.229 239.400 C 15.405 232.999,13.407 227.504,13.446 218.000 C 13.492 206.648,16.299 200.829,27.278 189.333 C 42.644 173.242,53.780 156.969,65.380 133.651 C 69.387 125.598,74.800 113.430,74.800 112.477 C 74.800 109.851,75.578 113.459,76.314 119.500 M96.800 243.433 C 96.800 244.425,99.397 248.276,101.376 250.218 C 108.686 257.392,125.198 260.301,134.900 256.124 C 137.141 255.159,136.936 255.076,129.899 254.085 C 116.215 252.158,106.590 249.311,100.057 245.260 C 98.266 244.148,96.800 243.326,96.800 243.433 M178.816 267.631 C 179.640 269.169,185.669 274.984,188.200 276.681 C 195.526 281.594,203.414 284.000,212.190 284.000 C 219.626 284.000,228.110 281.912,224.100 281.069 C 223.495 280.941,219.532 280.119,215.293 279.241 C 203.956 276.892,198.583 275.189,187.400 270.400 C 178.198 266.459,178.188 266.456,178.816 267.631 M88.914 270.851 C 90.897 271.250,91.290 271.497,92.251 272.951 C 95.959 278.566,102.608 283.463,109.400 285.583 C 116.455 287.784,131.544 286.806,138.800 283.676 L 140.600 282.900 145.600 287.776 C 154.144 296.110,162.925 302.378,173.707 307.841 L 179.615 310.833 179.386 315.917 C 178.557 334.311,174.280 345.369,166.655 348.831 C 164.057 350.011,163.428 349.893,164.213 348.376 C 167.756 341.524,170.929 330.101,170.705 325.000 C 169.811 304.577,135.000 300.402,125.752 319.608 C 124.453 322.305,123.448 325.907,122.992 329.500 C 122.845 330.655,122.679 331.600,122.623 331.600 C 122.567 331.600,119.568 330.184,115.960 328.453 C 101.525 321.529,89.485 316.484,78.514 312.763 C 74.727 311.479,70.713 309.964,69.593 309.396 L 67.557 308.365 68.824 306.682 C 73.569 300.382,76.779 294.574,78.583 289.024 C 79.970 284.759,79.737 284.573,77.474 288.145 C 74.986 292.073,70.865 296.448,65.866 300.469 L 61.837 303.710 60.696 302.355 C 58.630 299.901,55.574 293.321,55.991 292.224 C 61.635 277.380,75.761 268.210,88.914 270.851 M249.600 285.813 C 249.600 286.584,251.832 290.172,253.389 291.903 C 260.978 300.344,277.507 303.733,288.500 299.102 C 289.545 298.662,290.400 298.166,290.400 298.000 C 290.400 297.306,284.397 295.490,271.225 292.199 C 266.289 290.965,259.558 288.976,256.268 287.778 C 250.335 285.618,249.600 285.401,249.600 285.813 M90.895 288.500 C 90.244 289.655,88.455 293.210,86.918 296.400 C 85.381 299.590,82.658 304.405,80.868 307.100 C 77.358 312.383,77.382 312.836,81.049 310.466 C 87.067 306.577,91.683 298.044,92.282 289.700 C 92.561 285.819,92.455 285.728,90.895 288.500 M322.800 298.169 C 322.800 298.327,323.336 299.235,323.991 300.188 C 328.290 306.436,338.686 309.417,347.924 307.051 L 350.848 306.302 349.977 305.376 C 346.918 302.120,322.800 295.724,322.800 298.169 M152.800 311.058 C 162.104 313.424,167.336 320.138,165.797 327.735 C 164.664 333.327,157.543 349.617,156.243 349.591 C 155.374 349.574,152.301 347.984,148.281 345.471 C 143.855 342.705,134.744 337.731,127.900 334.345 C 123.002 331.922,123.195 332.314,124.410 327.245 C 126.794 317.299,132.716 311.940,143.200 310.239 C 144.821 309.976,150.424 310.454,152.800 311.058 " stroke="none" fill="#bb371a" fill-rule="evenodd"></path></g></svg>